<?xml version="1.0" encoding="utf-8" standalone="yes"?>
<!DOCTYPE svg PUBLIC "-//W3C//DTD SVG 1.1//EN" "http://www.w3.org/Graphics/SVG/1.1/DTD/svg11.dtd">
<svg style="fill:none;stroke:none;fill-rule:evenodd;clip-rule:evenodd;stroke-linecap:round;stroke-linejoin:round;stroke-miterlimit:1.5;" version="1.1" xmlns="http://www.w3.org/2000/svg" xmlns:xlink="http://www.w3.org/1999/xlink" width="684" height="576" viewBox="0 0 684 576"><style class="text-font-style fontImports" data-font-family="Roboto">@import url(https://fonts.googleapis.com/css2?family=Roboto:wght@400;700&amp;amp;display=block);</style><rect id="" x="0" y="0" width="684" height="576" style="fill: #ffffff;"></rect><g id="items" style="isolation: isolate"><g id="blend" style="mix-blend-mode: normal"><g id="g-root-tf_mbpa7uorot8l-fill" data-item-order="-590976"><g id="tf_mbpa7uorot8l-fill-merged" stroke="none" fill="#ffffff" fill-opacity="1"><g><path d="M0 0 H684 V576 H0 V0"></path></g></g></g><g id="g-root-cr_6_cr-small-6_m8kwsaoryolo-fill" data-item-order="-131219" transform="translate(155.1328125, 152.02490234375)"></g><g id="g-root-sy_6_line_htdvqyorym85-fill" data-item-order="-131215" transform="translate(170.00018310546875, 234.81494140625)"></g><g id="g-root-cr_5_cr-small-5_htdvqyorym86-fill" data-item-order="-131211" transform="translate(155.1328125, 307.96240234375)"></g><g id="g-root-sy_5_line_htdvqyorym87-fill" data-item-order="-131207" transform="translate(222.7001953125, 382.90478515625)"></g><g id="g-root-cr_4_cr-small-4_ddkdmioryn0g-fill" data-item-order="-131203" transform="translate(290, 386)"></g><g id="g-root-sy_4_line_ddkdmioryn0h-fill" data-item-order="-131199" transform="translate(375.5, 381.455078125)"></g><g id="g-root-cr_3_cr-small-3_4hxddmorynt6-fill" data-item-order="-131195" transform="translate(424.86822509765625, 307.96240234375)"></g><g id="g-root-sy_3_line_4hxddmorynt7-fill" data-item-order="-131191" transform="translate(478.4208984375, 232.68505859375)"></g><g id="g-root-cr_2_cr-small-2_23v96oryolg-fill" data-item-order="-131187" transform="translate(424.8681640625, 152.02490234375)"></g><g id="g-root-sy_2_line_23v96oryolh-fill" data-item-order="-131183" transform="translate(373.4404296875, 117.35498046875)"></g><g id="g-root-cr_1_cr-small-1_1q7kwzeoryp72-fill" data-item-order="-131179" transform="translate(290, 74)"></g><g id="g-root-sy_1_line_1q7kwzeoryp73-fill" data-item-order="-131175" transform="translate(221.099609375, 118.025146484375)"></g><g id="g-root-tx_neuralne_4lob22orufwu-fill" data-item-order="0" transform="translate(506, 122)"><g id="tx_neuralne_4lob22orufwu-fill-merged" stroke="none" fill="#374840" fill-opacity="1"><g><text style="font: 20px Roboto, sans-serif; white-space: pre;" transform="translate(10, 46)" font-size="20px" font-family="Roboto, sans-serif"><tspan x="2" y="-12" dominant-baseline="ideographic">Neural </tspan><tspan x="2" y="12" dominant-baseline="ideographic">Networks and </tspan><tspan x="2" y="36" dominant-baseline="ideographic">Deep Learning</tspan></text></g></g></g><g id="g-root-ic_1_1uuw7ayorrmyp-fill" data-item-order="0" transform="translate(437, 164)"></g><g id="g-root-tx_applicat_4lureorueiz-fill" data-item-order="0" transform="translate(266, 470)"><g id="tx_applicat_4lureorueiz-fill-merged" stroke="none" fill="#46432d" fill-opacity="1"><g><text style="font: 20px Roboto, sans-serif; white-space: pre;" transform="translate(70, 46)" font-size="20px" font-family="Roboto, sans-serif"><tspan x="-52.98" y="-12" dominant-baseline="ideographic">Application-</tspan><tspan x="-37.97" y="12" dominant-baseline="ideographic">Focused </tspan><tspan x="-38.61" y="36" dominant-baseline="ideographic">Learning</tspan></text></g></g></g><g id="g-root-ic_fram_vb34zeos1fd2-fill" data-item-order="0" transform="translate(167, 320)"></g><g id="g-root-ic_fram_18mjqiiorq9s6-fill" data-item-order="0" transform="translate(437, 320)"></g><g id="g-root-tx_foundati_mb2waiorufb6-fill" data-item-order="0" transform="translate(14, 338)"><g id="tx_foundati_mb2waiorufb6-fill-merged" stroke="none" fill="#4c4034" fill-opacity="1"><g><text style="font: 20px Roboto, sans-serif; white-space: pre;" transform="translate(142, 40)" font-size="20px" font-family="Roboto, sans-serif"><tspan x="-112.67" y="-0" dominant-baseline="ideographic">Foundations </tspan><tspan x="-128.85" y="24" dominant-baseline="ideographic">and Deep Dive</tspan></text></g></g></g><g id="g-root-tx_practica_18isvzuoruhho-fill" data-item-order="0" transform="translate(506, 338)"><g id="tx_practica_18isvzuoruhho-fill-merged" stroke="none" fill="#424736" fill-opacity="1"><g><text style="font: 20px Roboto, sans-serif; white-space: pre;" transform="translate(10, 40)" font-size="20px" font-family="Roboto, sans-serif"><tspan x="2" y="-0" dominant-baseline="ideographic">Practical Deep </tspan><tspan x="2" y="24" dominant-baseline="ideographic">Learning</tspan></text></g></g></g><g id="g-root-tx_modernar_4ijxmiorufi8-fill" data-item-order="0" transform="translate(14, 98)"><g id="tx_modernar_4ijxmiorufi8-fill-merged" stroke="none" fill="#543a3a" fill-opacity="1"><g><text style="font: 20px Roboto, sans-serif; white-space: pre;" transform="translate(142, 58)" font-size="20px" font-family="Roboto, sans-serif"><tspan x="-70.58" y="-24" dominant-baseline="ideographic">Modern </tspan><tspan x="-120.7" y="0" dominant-baseline="ideographic">Architectures </tspan><tspan x="-128.31" y="24" dominant-baseline="ideographic">and Advanced </tspan><tspan x="-61.26" y="48" dominant-baseline="ideographic">Topics</tspan></text></g></g></g><g id="g-root-ic_chip_18mjqiiort1cb-fill" data-item-order="0" transform="translate(302, 86)"></g><g id="g-root-ic_smal_i0vksaos2wi5-fill" data-item-order="0" transform="translate(301.9990234375, 398)"></g><g id="g-root-tx_introduc_1lw4tmioruex3-fill" data-item-order="0" transform="translate(254, 2)"><g id="tx_introduc_1lw4tmioruex3-fill-merged" stroke="none" fill="#32444a" fill-opacity="1"><g><text style="font: 20px Roboto, sans-serif; white-space: pre;" transform="translate(82, 40)" font-size="20px" font-family="Roboto, sans-serif"><tspan x="-67.59" y="-0" dominant-baseline="ideographic">Introduction to </tspan><tspan x="-66.28" y="24" dominant-baseline="ideographic">Deep Learning</tspan></text></g></g></g><g id="g-root-ic_spar_1lsdvy2orymtk-fill" data-item-order="0" transform="translate(167, 164)"></g><g id="g-root-tf_mbpa7uorot8l-stroke" data-item-order="-590976"></g><g id="g-root-cr_6_cr-small-6_m8kwsaoryolo-stroke" data-item-order="-131219" transform="translate(155.1328125, 152.02490234375)"><g id="cr_6_cr-small-6_m8kwsaoryolo-stroke" fill="none" stroke-linecap="round" stroke-linejoin="round" stroke-miterlimit="4" stroke="#e55753" stroke-width="2" stroke-opacity="1"><g><path d="M 10 46C 10 65.882251 26.117749 82 46 82C 65.882251 82 82 65.882251 82 46C 82 26.117749 65.882251 10 46 10C 26.117749 10 10 26.117749 10 46Z"></path></g></g></g><g id="g-root-sy_6_line_htdvqyorym85-stroke" data-item-order="-131215" transform="translate(170.00018310546875, 234.81494140625)"><g id="sy_6_line_htdvqyorym85-stroke" fill="none" stroke-linecap="round" stroke-linejoin="round" stroke-miterlimit="4" stroke="#484848" stroke-width="2" stroke-opacity="1"><g><path d="M 12.75 11.95C 10.95 21.42 10 31.19 10 41.18C 10 52.61 11.24 63.74 13.57 74.47"></path><path d="M 18.3 18.9L 12.9 11.5L 5.4 16.8" stroke-dasharray="none"></path></g></g></g><g id="g-root-cr_5_cr-small-5_htdvqyorym86-stroke" data-item-order="-131211" transform="translate(155.1328125, 307.96240234375)"><g id="cr_5_cr-small-5_htdvqyorym86-stroke" fill="none" stroke-linecap="round" stroke-linejoin="round" stroke-miterlimit="4" stroke="#de8431" stroke-width="2" stroke-opacity="1"><g><path d="M 10 46C 10 65.882251 26.117749 82 46 82C 65.882251 82 82 65.882251 82 46C 82 26.117749 65.882251 10 46 10C 26.117749 10 10 26.117749 10 46Z"></path></g></g></g><g id="g-root-sy_5_line_htdvqyorym87-stroke" data-item-order="-131207" transform="translate(222.7001953125, 382.90478515625)"><g id="sy_5_line_htdvqyorym87-stroke" fill="none" stroke-linecap="round" stroke-linejoin="round" stroke-miterlimit="4" stroke="#484848" stroke-width="2" stroke-opacity="1"><g><path d="M 11.46 11.28C 27.18 24.83 45.62 35.29 65.86 41.74"></path><path d="M 20.3 10L 11.2 11L 12.1 20.1" stroke-dasharray="none"></path></g></g></g><g id="g-root-cr_4_cr-small-4_ddkdmioryn0g-stroke" data-item-order="-131203" transform="translate(290, 386)"><g id="cr_4_cr-small-4_ddkdmioryn0g-stroke" fill="none" stroke-linecap="round" stroke-linejoin="round" stroke-miterlimit="4" stroke="#e0cb15" stroke-width="2" stroke-opacity="1"><g><path d="M 10 46C 10 65.882251 26.117749 82 46 82C 65.882251 82 82 65.882251 82 46C 82 26.117749 65.882251 10 46 10C 26.117749 10 10 26.117749 10 46Z"></path></g></g></g><g id="g-root-sy_4_line_ddkdmioryn0h-stroke" data-item-order="-131199" transform="translate(375.5, 381.455078125)"><g id="sy_4_line_ddkdmioryn0h-stroke" fill="none" stroke-linecap="round" stroke-linejoin="round" stroke-miterlimit="4" stroke="#484848" stroke-width="2" stroke-opacity="1"><g><path d="M 11.88 41.88C 31.9 34.9 50.05 23.96 65.41 10"></path><path d="M 15.2 33.6L 11.4 42L 19.8 45.8" stroke-dasharray="none"></path></g></g></g><g id="g-root-cr_3_cr-small-3_4hxddmorynt6-stroke" data-item-order="-131195" transform="translate(424.86822509765625, 307.96240234375)"><g id="cr_3_cr-small-3_4hxddmorynt6-stroke" fill="none" stroke-linecap="round" stroke-linejoin="round" stroke-miterlimit="4" stroke="#92bd39" stroke-width="2" stroke-opacity="1"><g><path d="M 10 46C 10 65.882251 26.117749 82 46 82C 65.882251 82 82 65.882251 82 46C 82 26.117749 65.882251 10 46 10C 26.117749 10 10 26.117749 10 46Z"></path></g></g></g><g id="g-root-sy_3_line_4hxddmorynt7-stroke" data-item-order="-131191" transform="translate(478.4208984375, 232.68505859375)"><g id="sy_3_line_4hxddmorynt7-stroke" fill="none" stroke-linecap="round" stroke-linejoin="round" stroke-miterlimit="4" stroke="#484848" stroke-width="2" stroke-opacity="1"><g><path d="M 10.830061 72.53C 12.630061 63.07 13.580061 53.3 13.580061 43.31C 13.580061 31.88 12.340061 20.74 10.000061 10"></path><path d="M 5.300061 65.5L 10.700061 73L 18.200061 67.6" stroke-dasharray="none"></path></g></g></g><g id="g-root-cr_2_cr-small-2_23v96oryolg-stroke" data-item-order="-131187" transform="translate(424.8681640625, 152.02490234375)"><g id="cr_2_cr-small-2_23v96oryolg-stroke" fill="none" stroke-linecap="round" stroke-linejoin="round" stroke-miterlimit="4" stroke="#3cc583" stroke-width="2" stroke-opacity="1"><g><path d="M 10 46C 10 65.882251 26.117749 82 46 82C 65.882251 82 82 65.882251 82 46C 82 26.117749 65.882251 10 46 10C 26.117749 10 10 26.117749 10 46Z"></path></g></g></g><g id="g-root-sy_2_line_23v96oryolh-stroke" data-item-order="-131183" transform="translate(373.4404296875, 117.35498046875)"><g id="sy_2_line_23v96oryolh-stroke" fill="none" stroke-linecap="round" stroke-linejoin="round" stroke-miterlimit="4" stroke="#484848" stroke-width="2" stroke-opacity="1"><g><path d="M 64.38 40.45C 48.67 26.9 30.23 16.45 10 10"></path><path d="M 55.5 41.7L 64.7 40.8L 63.8 31.6" stroke-dasharray="none"></path></g></g></g><g id="g-root-cr_1_cr-small-1_1q7kwzeoryp72-stroke" data-item-order="-131179" transform="translate(290, 74)"><g id="cr_1_cr-small-1_1q7kwzeoryp72-stroke" fill="none" stroke-linecap="round" stroke-linejoin="round" stroke-miterlimit="4" stroke="#1eabda" stroke-width="2" stroke-opacity="1"><g><path d="M 10 46C 10 65.882251 26.117749 82 46 82C 65.882251 82 82 65.882251 82 46C 82 26.117749 65.882251 10 46 10C 26.117749 10 10 26.117749 10 46Z"></path></g></g></g><g id="g-root-sy_1_line_1q7kwzeoryp73-stroke" data-item-order="-131175" transform="translate(221.099609375, 118.025146484375)"><g id="sy_1_line_1q7kwzeoryp73-stroke" fill="none" stroke-linecap="round" stroke-linejoin="round" stroke-miterlimit="4" stroke="#484848" stroke-width="2" stroke-opacity="1"><g><path d="M 63.52 10.64C 43.51 17.62 25.35 28.55 10 42.51"></path><path d="M 60.2 18.9L 64 10.5L 55.6 6.7" stroke-dasharray="none"></path></g></g></g><g id="g-root-tx_neuralne_4lob22orufwu-stroke" data-item-order="0" transform="translate(506, 122)"></g><g id="g-root-ic_1_1uuw7ayorrmyp-stroke" data-item-order="0" transform="translate(437, 164)"><g id="ic_1_1uuw7ayorrmyp-stroke" fill="none" stroke-linecap="round" stroke-linejoin="round" stroke-miterlimit="4" stroke="#3cc583" stroke-width="2" stroke-opacity="1"><g><path d="M 21.9 50.722C 24.020437 50.369061 25.810703 48.951202 26.639999 46.967999M 14.842 27.091999C 18.933346 27.809448 22.448338 30.41087 24.33 34.113998M 21.566 30.458L 25.152 27.768M 30 11.346C 29.961555 13.350931 29.599562 15.336494 28.928001 17.226M 26 19C 26 20.104568 26.89543 21 28 21C 29.10457 21 30 20.104568 30 19C 30 17.895432 29.10457 17 28 17C 26.89543 17 26 17.895432 26 19ZM 38 23C 38 24.104568 38.895432 25 40 25C 41.104568 25 42 24.104568 42 23C 42 21.895432 41.104568 21 40 21C 38.895432 21 38 21.895432 38 23ZM 45 31C 45 32.104568 45.895432 33 47 33C 48.104568 33 49 32.104568 49 31C 49 29.89543 48.104568 29 47 29C 45.895432 29 45 29.89543 45 31ZM 38 38C 38 39.104568 38.895432 40 40 40C 41.104568 40 42 39.104568 42 38C 42 36.895432 41.104568 36 40 36C 38.895432 36 38 36.895432 38 38ZM 25 27C 25 28.10457 25.895432 29 27 29C 28.10457 29 29 28.10457 29 27C 29 25.895432 28.10457 25 27 25C 25.895432 25 25 25.895432 25 27ZM 23 36C 23 37.104568 23.895432 38 25 38C 26.10457 38 27 37.104568 27 36C 27 34.895432 26.10457 34 25 34C 23.895432 34 23 34.895432 23 36ZM 57 34C 57.008011 31.185829 55.553005 28.569696 53.158001 27.092001C 53.293533 26.501471 53.363956 25.897869 53.368 25.292C 53.408073 21.133251 50.242878 17.643175 46.099998 17.278C 46.141312 15.640398 45.524818 14.054508 44.388306 12.874773C 43.251789 11.695037 41.690002 11.019809 40.052002 11C 37.462227 11.148269 35.151451 12.67555 34 15C 32.848549 12.67555 30.537773 11.148269 27.948 11C 26.309998 11.019809 24.748211 11.695037 23.611694 12.874773C 22.47518 14.054508 21.858686 15.640398 21.9 17.278C 17.755573 17.643291 14.589825 21.135719 14.632 25.296C 14.632763 25.901501 14.699829 26.505098 14.832 27.095999C 12.44329 28.57963 10.990566 31.192043 10.990566 34.003998C 10.990566 36.815956 12.44329 39.428368 14.832 40.911999C 14.699829 41.502899 14.632763 42.106499 14.632 42.711998C 14.594027 46.869217 17.758669 50.356941 21.9 50.722C 21.858686 52.3596 22.47518 53.945492 23.611694 55.125225C 24.748211 56.304962 26.309998 56.98019 27.948 57C 30.33633 57.057899 32.59996 55.93581 34 53.999996C 35.40004 55.93581 37.663666 57.057899 40.051998 56.999996C 41.690002 56.98019 43.251789 56.304962 44.388306 55.125225C 45.524818 53.945492 46.141312 52.3596 46.099998 50.722C 50.244423 50.356709 53.410175 46.864277 53.368 42.703999C 53.363956 42.098129 53.293533 41.49453 53.157997 40.903999C 55.551788 39.427048 57.006618 36.812752 57 34ZM 34 15L 34 38M 34 45.916L 34 54M 52.346001 21.326L 46.799999 24.102001C 45.179813 24.913155 43.276203 24.932337 41.639999 24.153999M 40 36C 40.593044 33.525269 42.525269 31.593044 45.000004 31.000002M 46.099998 50.722C 45.548 48.799999 44.605999 47.321999 43 47M 25 45C 25 46.104568 25.895432 47 27 47C 28.10457 47 29 46.104568 29 45C 29 43.895432 28.10457 43 27 43C 25.895432 43 25 43.895432 25 45ZM 39 47C 39 48.104568 39.895432 49 41 49C 42.104568 49 43 48.104568 43 47C 43 45.895432 42.104568 45 41 45C 39.895432 45 39 45.895432 39 47Z"></path></g></g></g><g id="g-root-tx_applicat_4lureorueiz-stroke" data-item-order="0" transform="translate(266, 470)"></g><g id="g-root-ic_fram_vb34zeos1fd2-stroke" data-item-order="0" transform="translate(167, 320)"><g id="ic_fram_vb34zeos1fd2-stroke" fill="none" stroke-linecap="round" stroke-linejoin="round" stroke-miterlimit="4" stroke="#de8431" stroke-width="2" stroke-opacity="1"><g><path d="M 56.5 23.1C 56.5 27.700001 52.700001 31.5 48.099998 31.5C 43.5 31.5 39.700001 27.700001 39.700001 23.1L 39.700001 15.7C 39.700001 13.3 41.5 11.5 43.900002 11.5L 52.299999 11.5C 54.700001 11.5 56.5 13.3 56.5 15.7L 56.5 23.1ZM 47.900002 11.5L 47.900002 31.1M 34.900002 14.300301L 39.914001 14.300301M 34.900002 26.300301L 40.366798 26.300301M 31.9 20.300301L 39.703201 20.300301M 39.700001 20.1001L 56.5 20.1001M 29.5 27.5L 13.5 27.5C 12.3 27.5 11.5 28.299999 11.5 29.5L 11.5 47.5C 11.5 48.700001 12.3 49.5 13.5 49.5L 33.5 49.5C 34.700001 49.5 35.5 48.700001 35.5 47.5L 35.5 33.5M 16.7449 49.5L 13.5 56.5M 23.5 27.5L 23.5 22.5M 10 10M 30.255199 49.5L 33.5 56.5M 23.70002 38.700001C 24.900021 39.900002 24.900021 41.5 23.70002 42.700001C 21.45072 44.9492 17.49218 43.781399 16.67004 42.700001C 18.5578 41.8172 18.390621 39.7892 19.70002 38.700001C 20.89724 37.636398 22.500019 37.5 23.70002 38.700001ZM 10 10M 23.976681 39.023399L 29.099979 33.9002"></path></g></g></g><g id="g-root-ic_fram_18mjqiiorq9s6-stroke" data-item-order="0" transform="translate(437, 320)"><g id="ic_fram_18mjqiiorq9s6-stroke" fill="none" stroke-linecap="round" stroke-linejoin="round" stroke-miterlimit="4" stroke="#92bd39" stroke-width="2" stroke-opacity="1"><g><path d="M 17 39C 19.761421 39 22 36.761398 22 34C 22 31.2386 19.761421 29 17 29C 14.238581 29 12 31.2386 12 34C 12 36.761398 14.238581 39 17 39ZM 35 27C 37.761398 27 40 24.761421 40 22C 40 19.238579 37.761398 17 35 17C 32.238602 17 30 19.238579 30 22C 30 24.761421 32.238602 27 35 27ZM 35 51C 37.761398 51 40 48.761398 40 46C 40 43.238602 37.761398 41 35 41C 32.238602 41 30 43.238602 30 46C 30 48.761398 32.238602 51 35 51ZM 51 56C 52.656799 56 54 54.656799 54 53C 54 51.343201 52.656799 50 51 50C 49.343201 50 48 51.343201 48 53C 48 54.656799 49.343201 56 51 56ZM 53 44C 54.656799 44 56 42.656799 56 41C 56 39.343201 54.656799 38 53 38C 51.343201 38 50 39.343201 50 41C 50 42.656799 51.343201 44 53 44ZM 51 18C 52.656799 18 54 16.65686 54 15C 54 13.34314 52.656799 12 51 12C 49.343201 12 48 13.34314 48 15C 48 16.65686 49.343201 18 51 18ZM 53 30C 54.656799 30 56 28.65686 56 27C 56 25.34314 54.656799 24 53 24C 51.343201 24 50 25.34314 50 27C 50 28.65686 51.343201 30 53 30ZM 10 10M 21 31.0002L 31.167999 25.21826M 39.582199 20.00782L 48.284401 16.25M 10 10M 39.801003 23.345219L 50.122002 26.17844M 10 10M 20.90234 37.1446L 31.0548 42.917599M 10 10M 39.599998 48L 48.277599 51.747002M 10 10M 39.863602 44.839802L 50.123001 41.822201"></path></g></g></g><g id="g-root-tx_foundati_mb2waiorufb6-stroke" data-item-order="0" transform="translate(14, 338)"></g><g id="g-root-tx_practica_18isvzuoruhho-stroke" data-item-order="0" transform="translate(506, 338)"></g><g id="g-root-tx_modernar_4ijxmiorufi8-stroke" data-item-order="0" transform="translate(14, 98)"></g><g id="g-root-ic_chip_18mjqiiort1cb-stroke" data-item-order="0" transform="translate(302, 86)"><g id="ic_chip_18mjqiiort1cb-stroke" fill="none" stroke-linecap="round" stroke-linejoin="round" stroke-miterlimit="4" stroke="#1eabda" stroke-width="2" stroke-opacity="1"><g><path d="M 28.278 18.771999C 30.214836 18.118927 31.347731 16.110697 30.904995 14.115247C 30.462257 12.119797 28.586336 10.77914 26.555042 11.00649C 24.52375 11.233839 22.990633 12.956045 23 15C 23.005421 15.361034 23.059917 15.719655 23.161999 16.066C 22.939999 16.046 22.726 16 22.5 16C 19.64325 15.986053 17.029131 17.603924 15.767223 20.166893C 14.505317 22.729862 14.817009 25.788288 16.57 28.044001C 13.438807 28.258814 11.008611 30.861448 11.008611 34C 11.008611 37.13855 13.438807 39.741184 16.57 39.956001C 14.817009 42.211712 14.505317 45.270138 15.767223 47.833107C 17.029131 50.396076 19.64325 52.013947 22.5 52C 22.726 52 22.939999 51.953999 23.161999 51.933998C 22.567677 54.036442 23.770287 56.226803 25.863207 56.853825C 27.956127 57.480846 30.16497 56.312527 30.824539 54.229633C 31.484108 52.14674 30.350359 49.919956 28.278 49.228001M 39.722 18.771999C 37.785164 18.118927 36.652267 16.110697 37.095005 14.115247C 37.537743 12.119797 39.413666 10.77914 41.444958 11.00649C 43.47625 11.233839 45.009369 12.956045 45 15C 44.994579 15.361034 44.940079 15.719655 44.838001 16.066C 45.060001 16.046 45.273998 16 45.5 16C 48.35675 15.986053 50.970871 17.603924 52.232777 20.166893C 53.494682 22.729862 53.182991 25.788288 51.43 28.044001C 54.561192 28.258814 56.99139 30.861448 56.99139 34C 56.99139 37.13855 54.561192 39.741184 51.43 39.956001C 53.182991 42.211712 53.494682 45.270138 52.232777 47.833107C 50.970871 50.396076 48.35675 52.013947 45.5 52C 45.273998 52 45.060001 51.953999 44.838001 51.933998C 45.432323 54.036442 44.229713 56.226803 42.136795 56.853825C 40.043873 57.480846 37.83503 56.312527 37.175461 54.229633C 36.515892 52.14674 37.649643 49.919956 39.722 49.228001M 31 14.8C 32.856407 13.728203 35.143593 13.728203 37 14.8M 37 53.200001C 35.143593 54.271797 32.856407 54.271797 31 53.200001M 28 26L 40 26C 40 26 42 26 42 28L 42 40C 42 40 42 42 40 42L 28 42C 28 42 26 42 26 40L 26 28C 26 28 26 26 28 26M 30 22L 30 26M 38 22L 38 26M 22 38L 26 38M 22 30L 26 30M 38 46L 38 42M 30 46L 30 42M 46 30L 42 30M 46 38L 42 38"></path></g></g></g><g id="g-root-ic_smal_i0vksaos2wi5-stroke" data-item-order="0" transform="translate(301.9990234375, 398)"><g id="ic_smal_i0vksaos2wi5-stroke" fill="none" stroke-linecap="round" stroke-linejoin="round" stroke-miterlimit="4" stroke="#e0cb15" stroke-width="2" stroke-opacity="1"><g><path d="M 24 23.007999L 44 23.007999C 44 23.007999 48 23.007999 48 27.007999L 48 39.007999C 48 39.007999 48 43.007999 44 43.007999L 24 43.007999C 24 43.007999 20 43.007999 20 39.007999L 20 27.007999C 20 27.007999 20 23.007999 24 23.007999M 20 31.007999L 48 31.007999M 26 26.507999L 26 26.507999M 26 26.507999C 25.723858 26.507999 25.5 26.731857 25.5 27.007999C 25.5 27.284142 25.723858 27.507999 26 27.507999C 26.276142 27.507999 26.5 27.284142 26.5 27.007999C 26.5 26.731857 26.276142 26.507999 26 26.507999M 30 26.507999L 30 26.507999M 30 26.507999C 29.723858 26.507999 29.5 26.731857 29.5 27.007999C 29.5 27.284142 29.723858 27.507999 30 27.507999C 30.276142 27.507999 30.5 27.284142 30.5 27.007999C 30.5 26.731857 30.276142 26.507999 30 26.507999M 34 26.507999L 34 26.507999M 34 26.507999C 33.723858 26.507999 33.5 26.731857 33.5 27.007999C 33.5 27.284142 33.723858 27.507999 34 27.507999C 34.276142 27.507999 34.5 27.284142 34.5 27.007999C 34.5 26.731857 34.276142 26.507999 34 26.507999"></path></g></g></g><g id="g-root-tx_introduc_1lw4tmioruex3-stroke" data-item-order="0" transform="translate(254, 2)"></g><g id="g-root-ic_spar_1lsdvy2orymtk-stroke" data-item-order="0" transform="translate(167, 164)"><g id="ic_spar_1lsdvy2orymtk-stroke" fill="none" stroke-linecap="round" stroke-linejoin="round" stroke-miterlimit="4" stroke="#e55753" stroke-width="2" stroke-opacity="1"><g><path d="M 38.1446 20.90822C 42.668201 19.99884 46.3102 16.3125 47.221001 11.671876C 48.131802 16.3125 51.772999 19.99884 56.2966 20.90822M 56.2966 20.913521C 51.772999 21.822899 48.131001 25.509239 47.2202 30.149799C 46.309399 25.509239 42.668201 21.822899 38.1446 20.913521M 45.0504 56.328201C 50.084 56.328201 54.278599 51.923801 54.278599 46.890202C 54.278599 41.856598 50.084 37.662003 45.0504 37.662003C 43.1628 37.662003 41.2752 38.291199 39.807198 39.34C 38.548798 32.8382 32.886002 27.80468 25.964859 27.80468C 18.2048 27.80468 11.703124 34.0966 11.703124 42.066399C 11.703124 50.036201 17.99506 56.328201 25.964859 56.328201L 45.0504 56.328201Z"></path></g></g></g></g></g><path id="wdgpz68r9tkpb" d="M65.283 12.757a.35.35 0 0 0 .584.157l5.203-5.141-6.183 3.523.396 1.461zm-2.216-11.7a.35.35 0 0 0-.522.305v3.111l3.276-1.868-2.754-1.548zm3.728 2.105l-4.25 2.421v2.445l6.391-3.644-2.141-1.222zm4.708 3.303a.35.35 0 0 0 0-.609l-1.592-.9-7.365 4.199v1.782a.35.35 0 0 0 .523.305l8.435-4.777z M44.542 2.513c0-.433.355-.783.792-.783s.792.35.792.783-.355.783-.792.783-.792-.35-.792-.783zm59.171 0c0-.433.355-.783.792-.783s.792.35.792.783-.355.783-.792.783-.792-.35-.792-.783zm-85.951 7.636h-1.27v-.487c-.276.201-.864.609-1.881.609-1.202 0-2.274-.794-2.137-2.078.118-1.106 1.153-1.584 1.848-1.727l2.17-.345c0-.539-.29-.956-1.064-1.006s-1.21.305-1.571 1.017l-1.124-.605c1.218-2.631 5.029-1.764 5.029.414v4.207zm-1.27-2.86c.006.396-.062 1.112-.819 1.59-.587.37-1.841.299-1.903-.395-.049-.555.461-.791.906-.898l1.816-.297zm72.662 2.86h-1.27v-.487c-.276.201-.864.609-1.881.609-1.202 0-2.274-.794-2.137-2.078.118-1.106 1.153-1.584 1.848-1.727l2.17-.345c0-.539-.29-.956-1.064-1.006s-1.21.305-1.571 1.017l-1.124-.605c1.218-2.631 5.029-1.764 5.029.414v4.207zm-1.27-2.86c.006.396-.062 1.112-.82 1.59-.587.37-1.841.299-1.903-.395-.049-.555.461-.791.906-.898l1.816-.297zM99.096 10.149H97.85v-8.45h1.246v4.895l2.68-2.559h1.738l-2.633 2.535 2.715 3.578h-1.556l-2.077-2.707-.867.844v1.863zm6.053-6.114h-1.255v6.113h1.255V4.035zm-59.2 0h-1.255v6.113h1.255V4.035zm5.584 6.113V1.697h1.255v2.695c.361-.346 1-.485 1.47-.485 1.452 0 2.477 1.082 2.457 2.448v3.792h-1.27v-3.68c0-.408-.214-1.339-1.315-1.339-.968 0-1.342.756-1.342 1.339v3.681h-1.255zm-4.76-4.894V4.039h.621a.45.45 0 0 0 .45-.45v-.855h1.251v1.305h1.309v1.215h-1.309v3.109c0 .293.105.664.648.664.365 0 .531-.035.736-.07v1.137s-.361.113-.857.113c-1.398 0-1.777-1.051-1.777-1.788V5.254h-1.071zM36.528 4.039h-1.394l2.191 6.106h1.125l1.234-3.918 1.238 3.918h1.129l2.188-6.106h-1.383l-1.359 3.93-1.256-3.93h-1.124l-1.242 3.957-1.348-3.957zM26.212 7.141c-.02 1.566 1.187 3.129 3.223 3.129 1.566 0 2.383-.918 2.734-1.719L31.172 8c-.315.399-.801 1.094-1.738 1.094-1.145 0-1.825-.781-1.891-1.52h4.625c.074-.284.148-.995-.03-1.559-.336-1.064-1.221-2.102-2.839-2.102s-3.088 1.152-3.088 3.227zm1.363-.75h3.348c-.055-.43-.566-1.301-1.623-1.301a1.79 1.79 0 0 0-1.725 1.301zm-8.758.75c.038 1.758 1.277 3.133 3.145 3.133 1.074 0 1.723-.477 1.961-.672v.547h1.242V1.703h-1.258v2.888c-.414-.36-1.062-.68-1.93-.68-1.91 0-3.198 1.473-3.16 3.23zm1.309-.08c0 1.119.723 1.978 1.836 1.978a1.88 1.88 0 0 0 1.94-1.904c0-1.371-1.011-1.99-1.972-1.99s-1.805.798-1.805 1.916zm76.683-.028C96.771 5.275 95.532 3.9 93.664 3.9c-1.074 0-1.723.477-1.961.672v-.547h-1.242v8.22h1.258V9.583c.414.36 1.063.68 1.93.68 1.91 0 3.198-1.473 3.16-3.23zm-1.309.08c0-1.119-.723-1.978-1.836-1.978a1.88 1.88 0 0 0-1.94 1.904c0 1.371 1.011 1.99 1.972 1.99S95.5 8.231 95.5 7.113zM106.441 10.173V4.036h1.254v.382c.361-.346 1-.485 1.47-.485 1.452 0 2.477 1.082 2.457 2.448v3.792h-1.27V6.492c0-.408-.214-1.339-1.315-1.339-.969 0-1.342.756-1.342 1.339v3.681h-1.254zm-30.383-.021V1.824h1.084l4.215 5.777V1.824h1.32v8.328h-1.094l-4.207-5.796v5.796h-1.319zM5.24 10.149H4V2.377h1.014l2.664 3.597 2.654-3.592h1.03v7.766h-1.256V4.762L7.678 8.068 5.24 4.742v5.407z" transform="translate(548, 542)" fill="#80808088" stroke="none"></path></svg>